<svg width="1920" height="160" viewBox="0 0 1920 160" fill="none" xmlns="http://www.w3.org/2000/svg">
    <path d="M1920 0H0V60C0 115.228 44.7715 160 100 160H1920V0Z" fill="#5964E0"/>
    <mask id="mask0_0_3747" style="mask-type:alpha" maskUnits="userSpaceOnUse" x="0" y="0" width="1920" height="160">
        <path d="M1920 0H0V60C0 115.228 44.7715 160 100 160H1920V0Z" fill="white"/>
    </mask>
    <g mask="url(#mask0_0_3747)">
        <path opacity="0.0813802" fill-rule="evenodd" clip-rule="evenodd" d="M1571.01 -221.726C1593.29 -240.679 1626.28 -235.419 1636.36 -211.309L1795.8 170.285C1807.99 199.465 1778.49 233.105 1745.34 227.821L1233.3 146.193C1200.16 140.908 1191.45 101.178 1218.41 78.2396L1571.01 -221.726Z" fill="white"/>
        <path opacity="0.0813802" fill-rule="evenodd" clip-rule="evenodd" d="M337.404 -338.417C333.958 -364.769 367.259 -382.257 399.097 -370.816L883.548 -196.729C917.186 -184.642 923.884 -149.707 895.429 -134.764L463.404 92.1164C434.949 107.06 393.47 90.3909 389.829 62.5499L337.404 -338.417Z" fill="white"/>
        <path opacity="0.0813802" fill-rule="evenodd" clip-rule="evenodd" d="M-97.2631 56.5825C-100.709 30.2308 -67.4075 12.7427 -35.5693 24.1837L448.881 198.271C482.519 210.358 489.217 245.293 460.762 260.236L28.7373 487.116C0.282346 502.06 -41.1971 485.391 -44.8372 457.55L-97.2631 56.5825Z" fill="white"/>
    </g>
</svg>
