<svg width="50" height="50" viewBox="0 0 50 50" fill="none" xmlns="http://www.w3.org/2000/svg">
    <rect width="50" height="50" rx="15" fill="#F16718"/>
    <rect x="13" y="13" width="24" height="24" fill="white"/>
    <path fill-rule="evenodd" clip-rule="evenodd" d="M19.3781 23.021C19.3781 23.1341 19.3144 23.2001 19.2051 23.2001H17.8393C17.73 23.2001 17.6663 23.1341 17.6663 23.021V18.203C17.6663 18.1558 17.639 18.1275 17.5935 18.1275H16.173C16.0637 18.1275 16 18.0615 16 17.9484V16.7792C16 16.6661 16.0637 16.6001 16.173 16.6001H20.9169C21.0262 16.6001 21.0899 16.6661 21.0899 16.7792V17.9484C21.0899 18.0615 21.0262 18.1275 20.9169 18.1275H19.451C19.4054 18.1275 19.3781 18.1558 19.3781 18.203V23.021ZM23.3208 23.021C23.3208 23.1341 23.257 23.2001 23.1478 23.2001H21.7819C21.6727 23.2001 21.6089 23.1341 21.6089 23.021V16.7792C21.6089 16.6661 21.6727 16.6001 21.7819 16.6001H23.1387C23.2297 16.6001 23.3026 16.6378 23.3481 16.7227L24.4498 18.5801C24.4772 18.6367 24.5318 18.6367 24.5591 18.5801L25.6609 16.7227C25.7064 16.6378 25.7792 16.6001 25.8703 16.6001H27.227C27.3363 16.6001 27.4 16.6661 27.4 16.7792V23.021C27.4 23.1341 27.3363 23.2001 27.227 23.2001H25.8612C25.7519 23.2001 25.6882 23.1341 25.6882 23.021V19.6927C25.6882 19.6172 25.6335 19.6078 25.5971 19.6644L25.0326 20.6355C24.9871 20.7204 24.9142 20.7581 24.8232 20.7581H24.1858C24.0947 20.7581 24.0219 20.7204 23.9764 20.6355L23.4118 19.6644C23.3754 19.6078 23.3208 19.6172 23.3208 19.6927V23.021Z" fill="#F16718"/>
</svg>
